<svg width="1200" height="760" viewBox="0 0 1200 760" fill="none" xmlns="http://www.w3.org/2000/svg">
  <rect width="1200" height="760" fill="#07101f"/>
  <rect x="72" y="72" width="1056" height="616" rx="30" fill="#0b1120" stroke="#4f46e5" stroke-width="2"/>
  <text x="120" y="145" fill="#dbeafe" font-family="Inter, Arial" font-size="40" font-weight="700">CloudGuardian Proxy</text>
  <rect x="120" y="210" width="220" height="120" rx="24" fill="#111827" stroke="#334155"/>
  <rect x="490" y="210" width="220" height="120" rx="24" fill="#111827" stroke="#6366f1"/>
  <rect x="860" y="210" width="220" height="120" rx="24" fill="#111827" stroke="#334155"/>
  <rect x="310" y="420" width="220" height="120" rx="24" fill="#111827" stroke="#334155"/>
  <rect x="670" y="420" width="220" height="120" rx="24" fill="#111827" stroke="#334155"/>
  <path d="M340 270 H490 M710 270 H860 M600 330 L420 420 M600 330 L780 420" stroke="#818cf8" stroke-width="8" stroke-linecap="round"/>
  <text x="185" y="282" fill="#c7d2fe" font-family="Inter, Arial" font-size="24" font-weight="700">Ingress</text>
  <text x="555" y="282" fill="#c7d2fe" font-family="Inter, Arial" font-size="24" font-weight="700">Proxy</text>
  <text x="925" y="282" fill="#c7d2fe" font-family="Inter, Arial" font-size="24" font-weight="700">API</text>
  <text x="372" y="492" fill="#c7d2fe" font-family="Inter, Arial" font-size="24" font-weight="700">Redis</text>
  <text x="714" y="492" fill="#c7d2fe" font-family="Inter, Arial" font-size="24" font-weight="700">Metrics</text>
</svg>
