<svg width="1200" height="760" viewBox="0 0 1200 760" fill="none" xmlns="http://www.w3.org/2000/svg">
  <rect width="1200" height="760" fill="#052016"/>
  <rect x="72" y="72" width="1056" height="616" rx="30" fill="#081a16" stroke="#0f766e" stroke-width="2"/>
  <text x="120" y="142" fill="#ccfbf1" font-family="Inter, Arial" font-size="38" font-weight="700">EcoTrack Analytics</text>
  <text x="120" y="178" fill="#5eead4" font-family="Inter, Arial" font-size="18">Carbon footprint dashboard</text>
  <rect x="120" y="230" width="280" height="160" rx="24" fill="#0f2b22" stroke="#134e4a"/>
  <rect x="440" y="230" width="280" height="160" rx="24" fill="#0f2b22" stroke="#134e4a"/>
  <rect x="760" y="230" width="280" height="160" rx="24" fill="#0f2b22" stroke="#134e4a"/>
  <text x="150" y="286" fill="#a7f3d0" font-family="Inter, Arial" font-size="18">Monthly Impact</text>
  <text x="150" y="340" fill="#ffffff" font-family="Inter, Arial" font-size="48" font-weight="700">-24%</text>
  <text x="470" y="286" fill="#a7f3d0" font-family="Inter, Arial" font-size="18">Active Goals</text>
  <text x="470" y="340" fill="#ffffff" font-family="Inter, Arial" font-size="48" font-weight="700">12</text>
  <text x="790" y="286" fill="#a7f3d0" font-family="Inter, Arial" font-size="18">Offset Credits</text>
  <text x="790" y="340" fill="#ffffff" font-family="Inter, Arial" font-size="48" font-weight="700">8.4t</text>
  <rect x="120" y="440" width="920" height="190" rx="26" fill="#06140f" stroke="#134e4a"/>
  <path d="M160 590 C250 520 300 560 380 500 C470 435 555 540 640 470 C735 392 830 505 1000 420" stroke="#34d399" stroke-width="8" stroke-linecap="round"/>
  <path d="M160 610 C280 575 350 600 430 555 C555 485 650 585 760 520 C840 475 910 520 1000 480" stroke="#22d3ee" stroke-width="5" stroke-linecap="round" opacity=".75"/>
</svg>
