<svg width="1200" height="760" viewBox="0 0 1200 760" fill="none" xmlns="http://www.w3.org/2000/svg">
  <rect width="1200" height="760" fill="#07111f"/>
  <rect x="70" y="70" width="1060" height="620" rx="32" fill="#0f172a" stroke="#164e63" stroke-width="2"/>
  <rect x="70" y="70" width="1060" height="72" rx="32" fill="#111827"/>
  <circle cx="120" cy="106" r="10" fill="#fb7185"/><circle cx="152" cy="106" r="10" fill="#fbbf24"/><circle cx="184" cy="106" r="10" fill="#34d399"/>
  <rect x="230" y="94" width="470" height="24" rx="12" fill="#020617" stroke="#334155"/>
  <text x="255" y="111" fill="#94a3b8" font-family="Inter, Arial" font-size="15">taskmaster-pro.app/workspace</text>
  <rect x="110" y="180" width="230" height="470" rx="22" fill="#020617" stroke="#1e293b"/>
  <text x="140" y="225" fill="#e2e8f0" font-family="Inter, Arial" font-size="30" font-weight="700">TaskMaster</text>
  <rect x="140" y="265" width="160" height="16" rx="8" fill="#22d3ee"/>
  <rect x="140" y="305" width="120" height="12" rx="6" fill="#475569"/>
  <rect x="380" y="180" width="210" height="470" rx="22" fill="#111827" stroke="#1e293b"/>
  <rect x="625" y="180" width="210" height="470" rx="22" fill="#111827" stroke="#1e293b"/>
  <rect x="870" y="180" width="210" height="470" rx="22" fill="#111827" stroke="#1e293b"/>
  <text x="410" y="225" fill="#67e8f9" font-family="Inter, Arial" font-size="18" font-weight="700">TODO</text>
  <text x="655" y="225" fill="#a5b4fc" font-family="Inter, Arial" font-size="18" font-weight="700">IN PROGRESS</text>
  <text x="900" y="225" fill="#6ee7b7" font-family="Inter, Arial" font-size="18" font-weight="700">DONE</text>
  <rect x="405" y="260" width="160" height="82" rx="16" fill="#0f172a" stroke="#334155"/>
  <rect x="405" y="365" width="160" height="112" rx="16" fill="#0f172a" stroke="#334155"/>
  <rect x="650" y="260" width="160" height="130" rx="16" fill="#0f172a" stroke="#334155"/>
  <rect x="650" y="415" width="160" height="92" rx="16" fill="#0f172a" stroke="#334155"/>
  <rect x="895" y="260" width="160" height="95" rx="16" fill="#0f172a" stroke="#334155"/>
  <rect x="895" y="380" width="160" height="120" rx="16" fill="#0f172a" stroke="#334155"/>
  <rect x="430" y="290" width="95" height="10" rx="5" fill="#cbd5e1"/>
  <rect x="675" y="290" width="105" height="10" rx="5" fill="#cbd5e1"/>
  <rect x="920" y="290" width="90" height="10" rx="5" fill="#cbd5e1"/>
</svg>
